<svg xmlns="http://www.w3.org/2000/svg" xmlns:xlink="http://www.w3.org/1999/xlink" contentStyleType="text/css" height="1224px" preserveAspectRatio="none" style="width:2445px;height:1224px;background:#FFFFFF;" version="1.1" viewBox="0 0 2445 1224" width="2445px" zoomAndPan="magnify"><title>Diagrama de Bloques del Sistema de Predicci&#243;n de Supervivencia Post-Trasplante de M&#233;dula &#211;sea</title><defs/><g><text fill="#000000" font-family="sans-serif" font-size="14" font-weight="bold" lengthAdjust="spacing" textLength="779.6865" x="825.8401" y="22.9951">Diagrama de Bloques del Sistema de Predicci&#243;n de Supervivencia Post-Trasplante de M&#233;dula &#211;sea</text><!--class data_input--><g id="elem_data_input"><rect codeLine="6" fill="#F1F1F1" height="80.5938" id="data_input" rx="2.5" ry="2.5" style="stroke:#181818;stroke-width:0.5;" width="428.2744" x="7" y="60.5969"/><ellipse cx="155.8286" cy="76.5969" fill="#ADD1B2" rx="11" ry="11" style="stroke:#181818;stroke-width:1.0;"/><path d="M158.7974,82.2375 Q158.2192,82.5344 157.5786,82.675 Q156.938,82.8312 156.2349,82.8312 Q153.7349,82.8312 152.4067,81.1906 Q151.0942,79.5344 151.0942,76.4094 Q151.0942,73.2844 152.4067,71.6281 Q153.7349,69.9719 156.2349,69.9719 Q156.938,69.9719 157.5786,70.1281 Q158.2349,70.2844 158.7974,70.5812 L158.7974,73.3 Q158.1724,72.7219 157.5786,72.4562 Q156.9849,72.175 156.3599,72.175 Q155.0161,72.175 154.3286,73.2531 Q153.6411,74.3156 153.6411,76.4094 Q153.6411,78.5031 154.3286,79.5812 Q155.0161,80.6437 156.3599,80.6437 Q156.9849,80.6437 157.5786,80.3781 Q158.1724,80.0969 158.7974,79.5187 L158.7974,82.2375 Z " fill="#000000"/><text fill="#000000" font-family="sans-serif" font-size="14" lengthAdjust="spacing" textLength="122.1172" x="176.3286" y="81.4436">Entrada de Datos</text><line style="stroke:#181818;stroke-width:0.5;" x1="8" x2="434.2744" y1="92.5969" y2="92.5969"/><rect fill="none" height="6" style="stroke:#C82930;stroke-width:1.0;" width="6" x="15" y="103.2453"/><text fill="#000000" font-family="sans-serif" font-size="14" lengthAdjust="spacing" textLength="330.3398" x="27" y="109.592">Almacenamiento en crudo de los datos cl&#237;nicos</text><line style="stroke:#181818;stroke-width:0.5;" x1="8" x2="434.2744" y1="116.8937" y2="116.8937"/><rect fill="#F24D5C" height="6" style="stroke:#C82930;stroke-width:1.0;" width="6" x="15" y="127.5422"/><text fill="#000000" font-family="sans-serif" font-size="14" lengthAdjust="spacing" textLength="402.2744" x="27" y="133.8889">Datos sensibles de pacientes pedi&#225;tricos (en Amazon S3)</text></g><!--class version_control--><g id="elem_version_control"><rect codeLine="11" fill="#F1F1F1" height="113.1875" id="version_control" rx="2.5" ry="2.5" style="stroke:#181818;stroke-width:0.5;" width="523.3965" x="663.44" y="44.2969"/><ellipse cx="847.9932" cy="60.2969" fill="#ADD1B2" rx="11" ry="11" style="stroke:#181818;stroke-width:1.0;"/><path d="M850.962,65.9375 Q850.3838,66.2344 849.7432,66.375 Q849.1026,66.5313 848.3995,66.5313 Q845.8995,66.5313 844.5713,64.8906 Q843.2588,63.2344 843.2588,60.1094 Q843.2588,56.9844 844.5713,55.3281 Q845.8995,53.6719 848.3995,53.6719 Q849.1026,53.6719 849.7432,53.8281 Q850.3995,53.9844 850.962,54.2813 L850.962,57 Q850.337,56.4219 849.7432,56.1563 Q849.1495,55.875 848.5245,55.875 Q847.1807,55.875 846.4932,56.9531 Q845.8057,58.0156 845.8057,60.1094 Q845.8057,62.2031 846.4932,63.2813 Q847.1807,64.3438 848.5245,64.3438 Q849.1495,64.3438 849.7432,64.0781 Q850.337,63.7969 850.962,63.2188 L850.962,65.9375 Z " fill="#000000"/><text fill="#000000" font-family="sans-serif" font-size="14" lengthAdjust="spacing" textLength="145.79" x="868.4932" y="65.1436">Control de Versiones</text><line style="stroke:#181818;stroke-width:0.5;" x1="664.44" x2="1185.8365" y1="76.2969" y2="76.2969"/><rect fill="none" height="6" style="stroke:#C82930;stroke-width:1.0;" width="6" x="671.44" y="86.9453"/><text fill="#000000" font-family="sans-serif" font-size="14" lengthAdjust="spacing" textLength="184.5908" x="683.44" y="93.292">C&#243;digo versionado con Git</text><rect fill="none" height="6" style="stroke:#C82930;stroke-width:1.0;" width="6" x="671.44" y="103.2422"/><text fill="#000000" font-family="sans-serif" font-size="14" lengthAdjust="spacing" textLength="193.9287" x="683.44" y="109.5889">Datos versionados con DVC</text><rect fill="none" height="6" style="stroke:#C82930;stroke-width:1.0;" width="6" x="671.44" y="119.5391"/><text fill="#000000" font-family="sans-serif" font-size="14" lengthAdjust="spacing" textLength="214.2451" x="683.44" y="125.8857">Sincronizaci&#243;n con Amazon S3</text><rect fill="none" height="6" style="stroke:#C82930;stroke-width:1.0;" width="6" x="671.44" y="135.8359"/><text fill="#000000" font-family="sans-serif" font-size="14" lengthAdjust="spacing" textLength="497.3965" x="683.44" y="142.1826">Asegura que cada versi&#243;n de c&#243;digo tenga sus datos correspondientes</text><line style="stroke:#181818;stroke-width:0.5;" x1="664.44" x2="1185.8365" y1="149.4844" y2="149.4844"/></g><!--class config_params--><g id="elem_config_params"><rect codeLine="19" fill="#F1F1F1" height="96.8906" id="config_params" rx="2.5" ry="2.5" style="stroke:#181818;stroke-width:0.5;" width="330.1719" x="760.05" y="234.4869"/><ellipse cx="823.361" cy="250.4869" fill="#ADD1B2" rx="11" ry="11" style="stroke:#181818;stroke-width:1.0;"/><path d="M826.3298,256.1275 Q825.7517,256.4244 825.111,256.565 Q824.4704,256.7212 823.7673,256.7212 Q821.2673,256.7212 819.9392,255.0806 Q818.6267,253.4244 818.6267,250.2994 Q818.6267,247.1744 819.9392,245.5181 Q821.2673,243.8619 823.7673,243.8619 Q824.4704,243.8619 825.111,244.0181 Q825.7673,244.1744 826.3298,244.4712 L826.3298,247.19 Q825.7048,246.6119 825.111,246.3462 Q824.5173,246.065 823.8923,246.065 Q822.5485,246.065 821.861,247.1431 Q821.1735,248.2056 821.1735,250.2994 Q821.1735,252.3931 821.861,253.4712 Q822.5485,254.5337 823.8923,254.5337 Q824.5173,254.5337 825.111,254.2681 Q825.7048,253.9869 826.3298,253.4087 L826.3298,256.1275 Z " fill="#000000"/><text fill="#000000" font-family="sans-serif" font-size="14" lengthAdjust="spacing" textLength="195.0498" x="843.861" y="255.3336">Configuraci&#243;n y Par&#225;metros</text><line style="stroke:#181818;stroke-width:0.5;" x1="761.05" x2="1089.2219" y1="266.4869" y2="266.4869"/><rect fill="none" height="6" style="stroke:#C82930;stroke-width:1.0;" width="6" x="768.05" y="277.1353"/><text fill="#000000" font-family="sans-serif" font-size="14" lengthAdjust="spacing" textLength="274.6406" x="780.05" y="283.482">Definici&#243;n de hiperpar&#225;metros iniciales</text><rect fill="none" height="6" style="stroke:#C82930;stroke-width:1.0;" width="6" x="768.05" y="293.4322"/><text fill="#000000" font-family="sans-serif" font-size="14" lengthAdjust="spacing" textLength="224.7588" x="780.05" y="299.7789">Configuraci&#243;n de rutas de datos</text><rect fill="none" height="6" style="stroke:#C82930;stroke-width:1.0;" width="6" x="768.05" y="309.7291"/><text fill="#000000" font-family="sans-serif" font-size="14" lengthAdjust="spacing" textLength="304.1719" x="780.05" y="316.0757">Par&#225;metros de preprocesamiento y modelo</text><line style="stroke:#181818;stroke-width:0.5;" x1="761.05" x2="1089.2219" y1="323.3775" y2="323.3775"/></g><!--class data_preprocessing--><g id="elem_data_preprocessing"><rect codeLine="26" fill="#F1F1F1" height="113.1875" id="data_preprocessing" rx="2.5" ry="2.5" style="stroke:#181818;stroke-width:0.5;" width="436.1699" x="707.05" y="408.3769"/><ellipse cx="823.695" cy="424.3769" fill="#ADD1B2" rx="11" ry="11" style="stroke:#181818;stroke-width:1.0;"/><path d="M826.6638,430.0175 Q826.0856,430.3144 825.445,430.455 Q824.8044,430.6112 824.1013,430.6112 Q821.6013,430.6112 820.2731,428.9706 Q818.9606,427.3144 818.9606,424.1894 Q818.9606,421.0644 820.2731,419.4081 Q821.6013,417.7519 824.1013,417.7519 Q824.8044,417.7519 825.445,417.9081 Q826.1013,418.0644 826.6638,418.3612 L826.6638,421.08 Q826.0388,420.5019 825.445,420.2362 Q824.8513,419.955 824.2263,419.955 Q822.8825,419.955 822.195,421.0331 Q821.5075,422.0956 821.5075,424.1894 Q821.5075,426.2831 822.195,427.3612 Q822.8825,428.4237 824.2263,428.4237 Q824.8513,428.4237 825.445,428.1581 Q826.0388,427.8769 826.6638,427.2987 L826.6638,430.0175 Z " fill="#000000"/><text fill="#000000" font-family="sans-serif" font-size="14" lengthAdjust="spacing" textLength="194.3799" x="844.195" y="429.2236">Preprocesamiento de Datos</text><line style="stroke:#181818;stroke-width:0.5;" x1="708.05" x2="1142.2199" y1="440.3769" y2="440.3769"/><rect fill="none" height="6" style="stroke:#C82930;stroke-width:1.0;" width="6" x="715.05" y="451.0253"/><text fill="#000000" font-family="sans-serif" font-size="14" lengthAdjust="spacing" textLength="408.2285" x="727.05" y="457.372">Limpieza de datos: eliminaci&#243;n de valores nulos y at&#237;picos</text><rect fill="none" height="6" style="stroke:#C82930;stroke-width:1.0;" width="6" x="715.05" y="467.3222"/><text fill="#000000" font-family="sans-serif" font-size="14" lengthAdjust="spacing" textLength="410.1699" x="727.05" y="473.6689">Transformaci&#243;n de datos: normalizaci&#243;n y estandarizaci&#243;n</text><rect fill="none" height="6" style="stroke:#C82930;stroke-width:1.0;" width="6" x="715.05" y="483.6191"/><text fill="#000000" font-family="sans-serif" font-size="14" lengthAdjust="spacing" textLength="269.4453" x="727.05" y="489.9657">Balanceo de clases para reducir sesgo</text><rect fill="none" height="6" style="stroke:#C82930;stroke-width:1.0;" width="6" x="715.05" y="499.9159"/><text fill="#000000" font-family="sans-serif" font-size="14" lengthAdjust="spacing" textLength="330.9619" x="727.05" y="506.2626">Generaci&#243;n de datos listos para entrenamiento</text><line style="stroke:#181818;stroke-width:0.5;" x1="708.05" x2="1142.2199" y1="513.5644" y2="513.5644"/></g><!--class data_split--><g id="elem_data_split"><rect codeLine="34" fill="#F1F1F1" height="80.5938" id="data_split" rx="2.5" ry="2.5" style="stroke:#181818;stroke-width:0.5;" width="410.125" x="1317.07" y="424.6769"/><ellipse cx="1456.5949" cy="440.6769" fill="#ADD1B2" rx="11" ry="11" style="stroke:#181818;stroke-width:1.0;"/><path d="M1459.5637,446.3175 Q1458.9855,446.6144 1458.3449,446.755 Q1457.7043,446.9112 1457.0012,446.9112 Q1454.5012,446.9112 1453.173,445.2706 Q1451.8605,443.6144 1451.8605,440.4894 Q1451.8605,437.3644 1453.173,435.7081 Q1454.5012,434.0519 1457.0012,434.0519 Q1457.7043,434.0519 1458.3449,434.2081 Q1459.0012,434.3644 1459.5637,434.6612 L1459.5637,437.38 Q1458.9387,436.8019 1458.3449,436.5362 Q1457.7512,436.255 1457.1262,436.255 Q1455.7824,436.255 1455.0949,437.3331 Q1454.4074,438.3956 1454.4074,440.4894 Q1454.4074,442.5831 1455.0949,443.6612 Q1455.7824,444.7237 1457.1262,444.7237 Q1457.7512,444.7237 1458.3449,444.4581 Q1458.9387,444.1769 1459.5637,443.5987 L1459.5637,446.3175 Z " fill="#000000"/><text fill="#000000" font-family="sans-serif" font-size="14" lengthAdjust="spacing" textLength="122.5752" x="1477.0949" y="445.5236">Divisi&#243;n de Datos</text><line style="stroke:#181818;stroke-width:0.5;" x1="1318.07" x2="1726.195" y1="456.6769" y2="456.6769"/><rect fill="none" height="6" style="stroke:#C82930;stroke-width:1.0;" width="6" x="1325.07" y="467.3253"/><text fill="#000000" font-family="sans-serif" font-size="14" lengthAdjust="spacing" textLength="384.125" x="1337.07" y="473.672">Separaci&#243;n en conjunto de entrenamiento y validaci&#243;n</text><rect fill="none" height="6" style="stroke:#C82930;stroke-width:1.0;" width="6" x="1325.07" y="483.6222"/><text fill="#000000" font-family="sans-serif" font-size="14" lengthAdjust="spacing" textLength="361.3955" x="1337.07" y="489.9689">Asegura datos consistentes para cada experimento</text><line style="stroke:#181818;stroke-width:0.5;" x1="1318.07" x2="1726.195" y1="497.2706" y2="497.2706"/></g><!--class model_training--><g id="elem_model_training"><rect codeLine="40" fill="#F1F1F1" height="96.8906" id="model_training" rx="2.5" ry="2.5" style="stroke:#181818;stroke-width:0.5;" width="461.9414" x="1291.17" y="598.5669"/><ellipse cx="1425.3971" cy="614.5669" fill="#ADD1B2" rx="11" ry="11" style="stroke:#181818;stroke-width:1.0;"/><path d="M1428.3658,620.2075 Q1427.7877,620.5044 1427.1471,620.645 Q1426.5064,620.8013 1425.8033,620.8013 Q1423.3033,620.8013 1421.9752,619.1606 Q1420.6627,617.5044 1420.6627,614.3794 Q1420.6627,611.2544 1421.9752,609.5981 Q1423.3033,607.9419 1425.8033,607.9419 Q1426.5064,607.9419 1427.1471,608.0981 Q1427.8033,608.2544 1428.3658,608.5513 L1428.3658,611.27 Q1427.7408,610.6919 1427.1471,610.4263 Q1426.5533,610.145 1425.9283,610.145 Q1424.5846,610.145 1423.8971,611.2231 Q1423.2096,612.2856 1423.2096,614.3794 Q1423.2096,616.4731 1423.8971,617.5513 Q1424.5846,618.6138 1425.9283,618.6138 Q1426.5533,618.6138 1427.1471,618.3481 Q1427.7408,618.0669 1428.3658,617.4888 L1428.3658,620.2075 Z " fill="#000000"/><text fill="#000000" font-family="sans-serif" font-size="14" lengthAdjust="spacing" textLength="184.9873" x="1445.8971" y="619.4136">Entrenamiento del Modelo</text><line style="stroke:#181818;stroke-width:0.5;" x1="1292.17" x2="1752.1114" y1="630.5669" y2="630.5669"/><rect fill="none" height="6" style="stroke:#C82930;stroke-width:1.0;" width="6" x="1299.17" y="641.2153"/><text fill="#000000" font-family="sans-serif" font-size="14" lengthAdjust="spacing" textLength="270.2246" x="1311.17" y="647.562">Selecci&#243;n y ajuste de hiperpar&#225;metros</text><rect fill="none" height="6" style="stroke:#C82930;stroke-width:1.0;" width="6" x="1299.17" y="657.5122"/><text fill="#000000" font-family="sans-serif" font-size="14" lengthAdjust="spacing" textLength="435.9414" x="1311.17" y="663.8589">Entrenamiento del modelo de ML con datos de entrenamiento</text><rect fill="none" height="6" style="stroke:#C82930;stroke-width:1.0;" width="6" x="1299.17" y="673.8091"/><text fill="#000000" font-family="sans-serif" font-size="14" lengthAdjust="spacing" textLength="289.5908" x="1311.17" y="680.1557">Optimizaci&#243;n del rendimiento del modelo</text><line style="stroke:#181818;stroke-width:0.5;" x1="1292.17" x2="1752.1114" y1="687.4575" y2="687.4575"/></g><!--class model_evaluation--><g id="elem_model_evaluation"><rect codeLine="47" fill="#F1F1F1" height="96.8906" id="model_evaluation" rx="2.5" ry="2.5" style="stroke:#181818;stroke-width:0.5;" width="551.1982" x="1246.54" y="772.4569"/><ellipse cx="1439.4057" cy="788.4569" fill="#ADD1B2" rx="11" ry="11" style="stroke:#181818;stroke-width:1.0;"/><path d="M1442.3745,794.0975 Q1441.7963,794.3944 1441.1557,794.535 Q1440.5151,794.6912 1439.812,794.6912 Q1437.312,794.6912 1435.9838,793.0506 Q1434.6713,791.3944 1434.6713,788.2694 Q1434.6713,785.1444 1435.9838,783.4881 Q1437.312,781.8319 1439.812,781.8319 Q1440.5151,781.8319 1441.1557,781.9881 Q1441.812,782.1444 1442.3745,782.4412 L1442.3745,785.16 Q1441.7495,784.5819 1441.1557,784.3162 Q1440.562,784.035 1439.937,784.035 Q1438.5932,784.035 1437.9057,785.1131 Q1437.2182,786.1756 1437.2182,788.2694 Q1437.2182,790.3631 1437.9057,791.4412 Q1438.5932,792.5037 1439.937,792.5037 Q1440.562,792.5037 1441.1557,792.2381 Q1441.7495,791.9569 1442.3745,791.3787 L1442.3745,794.0975 Z " fill="#000000"/><text fill="#000000" font-family="sans-serif" font-size="14" lengthAdjust="spacing" textLength="156.9668" x="1459.9057" y="793.3036">Evaluaci&#243;n del Modelo</text><line style="stroke:#181818;stroke-width:0.5;" x1="1247.54" x2="1796.7382" y1="804.4569" y2="804.4569"/><rect fill="none" height="6" style="stroke:#C82930;stroke-width:1.0;" width="6" x="1254.54" y="815.1053"/><text fill="#000000" font-family="sans-serif" font-size="14" lengthAdjust="spacing" textLength="238.8135" x="1266.54" y="821.452">Evaluaci&#243;n en datos de validaci&#243;n</text><line style="stroke:#181818;stroke-width:0.5;" x1="1247.54" x2="1796.7382" y1="828.7537" y2="828.7537"/><rect fill="#F24D5C" height="6" style="stroke:#C82930;stroke-width:1.0;" width="6" x="1254.54" y="839.4022"/><text fill="#000000" font-family="sans-serif" font-size="14" lengthAdjust="spacing" textLength="459.2246" x="1266.54" y="845.7489">C&#225;lculo de m&#233;tricas de rendimiento (AUC, precisi&#243;n, sensibilidad)</text><rect fill="#F24D5C" height="6" style="stroke:#C82930;stroke-width:1.0;" width="6" x="1254.54" y="855.6991"/><text fill="#000000" font-family="sans-serif" font-size="14" lengthAdjust="spacing" textLength="525.1982" x="1266.54" y="862.0457">Generaci&#243;n de gr&#225;ficos de evaluaci&#243;n (curvas ROC, matrices de confusi&#243;n)</text></g><!--class experiment_logging--><g id="elem_experiment_logging"><rect codeLine="54" fill="#F1F1F1" height="96.8906" id="experiment_logging" rx="2.5" ry="2.5" style="stroke:#181818;stroke-width:0.5;" width="466.3232" x="1288.98" y="946.3469"/><ellipse cx="1427.2061" cy="962.3469" fill="#ADD1B2" rx="11" ry="11" style="stroke:#181818;stroke-width:1.0;"/><path d="M1430.1748,967.9875 Q1429.5967,968.2844 1428.9561,968.425 Q1428.3154,968.5813 1427.6123,968.5813 Q1425.1123,968.5813 1423.7842,966.9406 Q1422.4717,965.2844 1422.4717,962.1594 Q1422.4717,959.0344 1423.7842,957.3781 Q1425.1123,955.7219 1427.6123,955.7219 Q1428.3154,955.7219 1428.9561,955.8781 Q1429.6123,956.0344 1430.1748,956.3313 L1430.1748,959.05 Q1429.5498,958.4719 1428.9561,958.2063 Q1428.3623,957.925 1427.7373,957.925 Q1426.3936,957.925 1425.7061,959.0031 Q1425.0186,960.0656 1425.0186,962.1594 Q1425.0186,964.2531 1425.7061,965.3313 Q1426.3936,966.3938 1427.7373,966.3938 Q1428.3623,966.3938 1428.9561,966.1281 Q1429.5498,965.8469 1430.1748,965.2688 L1430.1748,967.9875 Z " fill="#000000"/><text fill="#000000" font-family="sans-serif" font-size="14" lengthAdjust="spacing" textLength="181.3711" x="1447.7061" y="967.1936">Registro de Experimentos</text><line style="stroke:#181818;stroke-width:0.5;" x1="1289.98" x2="1754.3032" y1="978.3469" y2="978.3469"/><rect fill="none" height="6" style="stroke:#C82930;stroke-width:1.0;" width="6" x="1296.98" y="988.9953"/><text fill="#000000" font-family="sans-serif" font-size="14" lengthAdjust="spacing" textLength="434.9297" x="1308.98" y="995.342">Registro de hiperpar&#225;metros, m&#233;tricas y artefactos en MLflow</text><rect fill="none" height="6" style="stroke:#C82930;stroke-width:1.0;" width="6" x="1296.98" y="1005.2922"/><text fill="#000000" font-family="sans-serif" font-size="14" lengthAdjust="spacing" textLength="223.7266" x="1308.98" y="1011.6389">Almacenamiento en Amazon S3</text><rect fill="none" height="6" style="stroke:#C82930;stroke-width:1.0;" width="6" x="1296.98" y="1021.5891"/><text fill="#000000" font-family="sans-serif" font-size="14" lengthAdjust="spacing" textLength="440.3232" x="1308.98" y="1027.9357">Comparaci&#243;n de versiones y reproducibilidad de experimentos</text><line style="stroke:#181818;stroke-width:0.5;" x1="1289.98" x2="1754.3032" y1="1035.2375" y2="1035.2375"/></g><!--class testing_validation--><g id="elem_testing_validation"><rect codeLine="61" fill="#F1F1F1" height="96.8906" id="testing_validation" rx="2.5" ry="2.5" style="stroke:#181818;stroke-width:0.5;" width="386.3428" x="684.97" y="946.3469"/><ellipse cx="800.8631" cy="962.3469" fill="#ADD1B2" rx="11" ry="11" style="stroke:#181818;stroke-width:1.0;"/><path d="M803.8318,967.9875 Q803.2537,968.2844 802.6131,968.425 Q801.9724,968.5813 801.2693,968.5813 Q798.7693,968.5813 797.4412,966.9406 Q796.1287,965.2844 796.1287,962.1594 Q796.1287,959.0344 797.4412,957.3781 Q798.7693,955.7219 801.2693,955.7219 Q801.9724,955.7219 802.6131,955.8781 Q803.2693,956.0344 803.8318,956.3313 L803.8318,959.05 Q803.2068,958.4719 802.6131,958.2063 Q802.0193,957.925 801.3943,957.925 Q800.0506,957.925 799.3631,959.0031 Q798.6756,960.0656 798.6756,962.1594 Q798.6756,964.2531 799.3631,965.3313 Q800.0506,966.3938 801.3943,966.3938 Q802.0193,966.3938 802.6131,966.1281 Q803.2068,965.8469 803.8318,965.2688 L803.8318,967.9875 Z " fill="#000000"/><text fill="#000000" font-family="sans-serif" font-size="14" lengthAdjust="spacing" textLength="146.0566" x="821.3631" y="967.1936">Pruebas y Validaci&#243;n</text><line style="stroke:#181818;stroke-width:0.5;" x1="685.97" x2="1070.3128" y1="978.3469" y2="978.3469"/><rect fill="none" height="6" style="stroke:#C82930;stroke-width:1.0;" width="6" x="692.97" y="988.9953"/><text fill="#000000" font-family="sans-serif" font-size="14" lengthAdjust="spacing" textLength="360.3428" x="704.97" y="995.342">Pruebas unitarias en cada componente del pipeline</text><rect fill="none" height="6" style="stroke:#C82930;stroke-width:1.0;" width="6" x="692.97" y="1005.2922"/><text fill="#000000" font-family="sans-serif" font-size="14" lengthAdjust="spacing" textLength="322.335" x="704.97" y="1011.6389">Pruebas integrales de flujo de datos completo</text><rect fill="none" height="6" style="stroke:#C82930;stroke-width:1.0;" width="6" x="692.97" y="1021.5891"/><text fill="#000000" font-family="sans-serif" font-size="14" lengthAdjust="spacing" textLength="286.0156" x="704.97" y="1027.9357">Cobertura de c&#243;digo y control de calidad</text><line style="stroke:#181818;stroke-width:0.5;" x1="685.97" x2="1070.3128" y1="1035.2375" y2="1035.2375"/></g><!--class ci_cd--><g id="elem_ci_cd"><rect codeLine="68" fill="#F1F1F1" height="96.8906" id="ci_cd" rx="2.5" ry="2.5" style="stroke:#181818;stroke-width:0.5;" width="466.4668" x="1971.9" y="946.3469"/><ellipse cx="2112.8844" cy="962.3469" fill="#ADD1B2" rx="11" ry="11" style="stroke:#181818;stroke-width:1.0;"/><path d="M2115.8531,967.9875 Q2115.275,968.2844 2114.6344,968.425 Q2113.9938,968.5813 2113.2906,968.5813 Q2110.7906,968.5813 2109.4625,966.9406 Q2108.15,965.2844 2108.15,962.1594 Q2108.15,959.0344 2109.4625,957.3781 Q2110.7906,955.7219 2113.2906,955.7219 Q2113.9938,955.7219 2114.6344,955.8781 Q2115.2906,956.0344 2115.8531,956.3313 L2115.8531,959.05 Q2115.2281,958.4719 2114.6344,958.2063 Q2114.0406,957.925 2113.4156,957.925 Q2112.0719,957.925 2111.3844,959.0031 Q2110.6969,960.0656 2110.6969,962.1594 Q2110.6969,964.2531 2111.3844,965.3313 Q2112.0719,966.3938 2113.4156,966.3938 Q2114.0406,966.3938 2114.6344,966.1281 Q2115.2281,965.8469 2115.8531,965.2688 L2115.8531,967.9875 Z " fill="#000000"/><text fill="#000000" font-family="sans-serif" font-size="14" lengthAdjust="spacing" textLength="175.998" x="2133.3844" y="967.1936">Integraci&#243;n Continua (CI)</text><line style="stroke:#181818;stroke-width:0.5;" x1="1972.9" x2="2437.3668" y1="978.3469" y2="978.3469"/><rect fill="none" height="6" style="stroke:#C82930;stroke-width:1.0;" width="6" x="1979.9" y="988.9953"/><text fill="#000000" font-family="sans-serif" font-size="14" lengthAdjust="spacing" textLength="386.1758" x="1991.9" y="995.342">GitHub Actions para ejecuci&#243;n de pruebas autom&#225;ticas</text><rect fill="none" height="6" style="stroke:#C82930;stroke-width:1.0;" width="6" x="1979.9" y="1005.2922"/><text fill="#000000" font-family="sans-serif" font-size="14" lengthAdjust="spacing" textLength="331.9941" x="1991.9" y="1011.6389">Validaci&#243;n continua del c&#243;digo en cada commit</text><rect fill="none" height="6" style="stroke:#C82930;stroke-width:1.0;" width="6" x="1979.9" y="1021.5891"/><text fill="#000000" font-family="sans-serif" font-size="14" lengthAdjust="spacing" textLength="440.4668" x="1991.9" y="1027.9357">Prevenci&#243;n de errores antes de integrarse en la rama principal</text><line style="stroke:#181818;stroke-width:0.5;" x1="1972.9" x2="2437.3668" y1="1035.2375" y2="1035.2375"/></g><!--class output_analysis--><g id="elem_output_analysis"><rect codeLine="75" fill="#F1F1F1" height="96.8906" id="output_analysis" rx="2.5" ry="2.5" style="stroke:#181818;stroke-width:0.5;" width="413.7822" x="1998.25" y="1120.2369"/><ellipse cx="2144.2998" cy="1136.2369" fill="#ADD1B2" rx="11" ry="11" style="stroke:#181818;stroke-width:1.0;"/><path d="M2147.2686,1141.8775 Q2146.6904,1142.1744 2146.0498,1142.315 Q2145.4092,1142.4712 2144.7061,1142.4712 Q2142.2061,1142.4712 2140.8779,1140.8306 Q2139.5654,1139.1744 2139.5654,1136.0494 Q2139.5654,1132.9244 2140.8779,1131.2681 Q2142.2061,1129.6119 2144.7061,1129.6119 Q2145.4092,1129.6119 2146.0498,1129.7681 Q2146.7061,1129.9244 2147.2686,1130.2212 L2147.2686,1132.94 Q2146.6436,1132.3619 2146.0498,1132.0962 Q2145.4561,1131.815 2144.8311,1131.815 Q2143.4873,1131.815 2142.7998,1132.8931 Q2142.1123,1133.9556 2142.1123,1136.0494 Q2142.1123,1138.1431 2142.7998,1139.2212 Q2143.4873,1140.2837 2144.8311,1140.2837 Q2145.4561,1140.2837 2146.0498,1140.0181 Q2146.6436,1139.7369 2147.2686,1139.1587 L2147.2686,1141.8775 Z " fill="#000000"/><text fill="#000000" font-family="sans-serif" font-size="14" lengthAdjust="spacing" textLength="113.1826" x="2164.7998" y="1141.0836">Salida y An&#225;lisis</text><line style="stroke:#181818;stroke-width:0.5;" x1="1999.25" x2="2411.0322" y1="1152.2369" y2="1152.2369"/><rect fill="none" height="6" style="stroke:#C82930;stroke-width:1.0;" width="6" x="2006.25" y="1162.8853"/><text fill="#000000" font-family="sans-serif" font-size="14" lengthAdjust="spacing" textLength="345.2422" x="2018.25" y="1169.232">Selecci&#243;n del modelo &#243;ptimo basado en m&#233;tricas</text><rect fill="none" height="6" style="stroke:#C82930;stroke-width:1.0;" width="6" x="2006.25" y="1179.1822"/><text fill="#000000" font-family="sans-serif" font-size="14" lengthAdjust="spacing" textLength="356.877" x="2018.25" y="1185.5289">Generaci&#243;n de informes detallados de rendimiento</text><rect fill="none" height="6" style="stroke:#C82930;stroke-width:1.0;" width="6" x="2006.25" y="1195.4791"/><text fill="#000000" font-family="sans-serif" font-size="14" lengthAdjust="spacing" textLength="387.7822" x="2018.25" y="1201.8257">Preparaci&#243;n del modelo para uso en decisiones cl&#237;nicas</text><line style="stroke:#181818;stroke-width:0.5;" x1="1999.25" x2="2411.0322" y1="1209.1275" y2="1209.1275"/></g><!--link data_input to version_control--><g id="link_data_input_version_control"><path codeLine="82" d="M435.71,100.8969 C507.4,100.8969 582.11,100.8969 657,100.8969 " fill="none" id="data_input-to-version_control" style="stroke:#181818;stroke-width:1.0;"/><polygon fill="#181818" points="663,100.8969,654,96.8969,658,100.8969,654,104.8969,663,100.8969" style="stroke:#181818;stroke-width:1.0;"/><text fill="#000000" font-family="sans-serif" font-size="13" lengthAdjust="spacing" textLength="192.6704" x="453.36" y="93.9638">Versionado de datos y c&#243;digo</text></g><!--link version_control to config_params--><g id="link_version_control_config_params"><path codeLine="83" d="M925.14,157.8669 C925.14,182.3369 925.14,204.7369 925.14,228.1769 " fill="none" id="version_control-to-config_params" style="stroke:#181818;stroke-width:1.0;"/><polygon fill="#181818" points="925.14,234.1769,929.14,225.1769,925.14,229.1769,921.14,225.1769,925.14,234.1769" style="stroke:#181818;stroke-width:1.0;"/><text fill="#000000" font-family="sans-serif" font-size="13" lengthAdjust="spacing" textLength="249.2725" x="926.14" y="200.5538">Definici&#243;n de configuraciones iniciales</text></g><!--link config_params to data_preprocessing--><g id="link_config_params_data_preprocessing"><path codeLine="84" d="M925.14,331.7069 C925.14,355.1469 925.14,377.5269 925.14,401.9769 " fill="none" id="config_params-to-data_preprocessing" style="stroke:#181818;stroke-width:1.0;"/><polygon fill="#181818" points="925.14,407.9769,929.14,398.9769,925.14,402.9769,921.14,398.9769,925.14,407.9769" style="stroke:#181818;stroke-width:1.0;"/><text fill="#000000" font-family="sans-serif" font-size="13" lengthAdjust="spacing" textLength="218.0547" x="926.14" y="374.4438">Par&#225;metros de preprocesamiento</text></g><!--link data_preprocessing to data_split--><g id="link_data_preprocessing_data_split"><path codeLine="85" d="M1143.62,464.9669 C1200.22,464.9669 1254.97,464.9669 1310.86,464.9669 " fill="none" id="data_preprocessing-to-data_split" style="stroke:#181818;stroke-width:1.0;"/><polygon fill="#181818" points="1316.86,464.9669,1307.86,460.9669,1311.86,464.9669,1307.86,468.9669,1316.86,464.9669" style="stroke:#181818;stroke-width:1.0;"/><text fill="#000000" font-family="sans-serif" font-size="13" lengthAdjust="spacing" textLength="137.9409" x="1161.65" y="458.0338">Datos preprocesados</text></g><!--link data_split to model_training--><g id="link_data_split_model_training"><path codeLine="88" d="M1522.14,505.4769 C1522.14,532.8069 1522.14,563.3169 1522.14,592.2769 " fill="none" id="data_split-to-model_training" style="stroke:#181818;stroke-width:1.0;"/><polygon fill="#181818" points="1522.14,598.2769,1526.14,589.2769,1522.14,593.2769,1518.14,589.2769,1522.14,598.2769" style="stroke:#181818;stroke-width:1.0;"/><text fill="#000000" font-family="sans-serif" font-size="13" lengthAdjust="spacing" textLength="158.7612" x="1523.14" y="564.6338">Datos de entrenamiento</text></g><!--link model_training to model_evaluation--><g id="link_model_training_model_evaluation"><path codeLine="89" d="M1522.14,695.8869 C1522.14,719.6369 1522.14,742.2269 1522.14,765.9769 " fill="none" id="model_training-to-model_evaluation" style="stroke:#181818;stroke-width:1.0;"/><polygon fill="#181818" points="1522.14,771.9769,1526.14,762.9769,1522.14,766.9769,1518.14,762.9769,1522.14,771.9769" style="stroke:#181818;stroke-width:1.0;"/><text fill="#000000" font-family="sans-serif" font-size="13" lengthAdjust="spacing" textLength="118.2061" x="1523.14" y="738.5238">Modelo entrenado</text></g><!--link model_evaluation to experiment_logging--><g id="link_model_evaluation_experiment_logging"><path codeLine="90" d="M1522.14,869.7769 C1522.14,893.5269 1522.14,916.1169 1522.14,939.8669 " fill="none" id="model_evaluation-to-experiment_logging" style="stroke:#181818;stroke-width:1.0;"/><polygon fill="#181818" points="1522.14,945.8669,1526.14,936.8669,1522.14,940.8669,1518.14,936.8669,1522.14,945.8669" style="stroke:#181818;stroke-width:1.0;"/><text fill="#000000" font-family="sans-serif" font-size="13" lengthAdjust="spacing" textLength="219.1465" x="1523.14" y="912.4138">Registro de resultados y m&#233;tricas</text></g><!--reverse link testing_validation to experiment_logging--><g id="link_testing_validation_experiment_logging"><path codeLine="93" d="M1077.79,994.7869 C1146.05,994.7869 1217.49,994.7869 1288.68,994.7869 " fill="none" id="testing_validation-backto-experiment_logging" style="stroke:#181818;stroke-width:1.0;"/><polygon fill="#181818" points="1071.79,994.7869,1080.79,998.7869,1076.79,994.7869,1080.79,990.7869,1071.79,994.7869" style="stroke:#181818;stroke-width:1.0;"/><text fill="#000000" font-family="sans-serif" font-size="13" lengthAdjust="spacing" textLength="181.3906" x="1089.64" y="987.8538">Validaci&#243;n de experimentos</text></g><!--link experiment_logging to ci_cd--><g id="link_experiment_logging_ci_cd"><path codeLine="94" d="M1755.75,994.7869 C1825.48,994.7869 1895.9,994.7869 1965.62,994.7869 " fill="none" id="experiment_logging-to-ci_cd" style="stroke:#181818;stroke-width:1.0;"/><polygon fill="#181818" points="1971.62,994.7869,1962.62,990.7869,1966.62,994.7869,1962.62,998.7869,1971.62,994.7869" style="stroke:#181818;stroke-width:1.0;"/><text fill="#000000" font-family="sans-serif" font-size="13" lengthAdjust="spacing" textLength="180.0132" x="1773.6" y="987.8538">Ejecuci&#243;n de pruebas CI/CD</text></g><!--link ci_cd to output_analysis--><g id="link_ci_cd_output_analysis"><path codeLine="97" d="M2205.14,1043.6769 C2205.14,1067.4169 2205.14,1090.0169 2205.14,1113.7569 " fill="none" id="ci_cd-to-output_analysis" style="stroke:#181818;stroke-width:1.0;"/><polygon fill="#181818" points="2205.14,1119.7569,2209.14,1110.7569,2205.14,1114.7569,2201.14,1110.7569,2205.14,1119.7569" style="stroke:#181818;stroke-width:1.0;"/><text fill="#000000" font-family="sans-serif" font-size="13" lengthAdjust="spacing" textLength="188.9761" x="2206.14" y="1086.3038">Modelo validado y registrado</text></g><!--SRC=[XLVDKXmt4BxFKoXx2LH1vP0RXrJXNU9G1J75EbotX4QxYD98O_rWBwayHPw0emy-yGZxOccrD1gD63kK3p3gtw-xlsuxuIGdAq5tXdQKj9oya_gJvnP-bMGjhEFnyutXhM1C75vL-7FjUswUn1DNJ51oewqx_MYexILLZWU1wyFNrajA3lzQJflcfvPlXUBazcBvyVpFzrSNX4bgRTFyd1m67QwSeIswQwdJbkm9q_1Do_3fYHihj8BGk29WkQS6NDaGYD26YETFNd3JqcRqiRWOBQw2nGMXDjYc6w5wxyZV3O6VKt8kEyguefs067Hmm8nlTT2JsgPec3nyKu9fcvJG8h5SMN4l4J68YGKBy4SFS1rUd0dov0WCddVqMIko_lMu-QSfOroEATuDAMASAU7DWC4GxFBmsegT7jufn0aYvBrmay36PullgxjbUbyBnOnMufd6UeRN7Dw0YEKxRoW9fM41GZINgizI18wh7OKIP8IqCTpsMhKHXP1fMM1mj1N1RFIx3pKyl7GSqhCL95Evcr4EeOc6Dg1EEvk1MOKU4xb77mIqHk61u2E5KWr0Jjs0Yl6Esjn_IQnmZZKsl3UQSJjqovvq6gP5rzc-4SnsYrHlPeIgLirsh52xdEoLw7h1dyTfEIDSYaweCPidAZNKWoWlSPYeEtphYmQ6YLLsgqqtgYHBAdoKkK7sX5j7LKlDy2bPU4TXu1d7gCD0XyQ7cX0W2y-4WU6mEvrattF5JUM9I60OdPJ2-ESPhC5inPEm4zqInLNvMi47f2J6IL_pu2j6mR7r7ts2VU8VSWRuH3j9TnYAeTjXye4Wuxo7371G-9V0IDrS4bCFWM5JvrIKDPMvHXbC2CKtm6dGoaKlhBdaR2WLVVGsSd0z04dwuZjH86rV8Hl41Ek8a_w7ta6VFUTIIYWtJFpRhEhi0L1VQCtaNacyoJoQS41hEVTIXnUHlwtUyl0YcOzvTeUlWPlZi9VX7vt_jJm9eyjYGvqaWXV1MdiytyixW7YBJ5-bUSIyUG8djn_0Q4U3oxWe0e5vT71SmsJu3hhAn9OSUmdNtlNLLkhF9MItXVH58OsWZUeRgNUxicLAlRfFJWfue9zWpMufcqRmlRLPhv6bxiPvcopnFK5Q2poHmAqJVikddjzZI4Lj9yU0KDiV70CtMVzkr4USO80TWBE9TYVjDIXv9HpG7qKGSCuPf0QPn7j7aXv0b73YL7e2tk6sIlV1Llh7SG-W2SdpO2trFJSE2MRSiPCRY660ROrCSfAtEIJZwJmoBOVMVfZWSbbgBmVje-NbSTorOiFQZ0TS6N_uUtBE0ae3SJzovdE9Xp9HxtG79r1eewHSu3w66S0RaYsmxV8v0oiIxynadnk3MuqYxuxP6yjJodZAzWQk7D5JMODbCOZGs0e80QRS4ZWRGAw0P3t8d0yo28Ns3gx63GNfVT2RuT-2JW-lWIWr0J32ZGQnvR6Qfn4e4knTJCfHAV5oczBJY4WvLTaZLiDRzDKYW-6efSELfec24lClyIM313THSHQV6h5xSAU_lJb1pyZYRhmwopiz5d3Hr1gdhVwimDBqOWCxrR5Md8OOMRxL5irKTJ0uSng1rV-vrHRDZ5hEjZWNGe2OscW1gh48yFsECvoHcmn_NA5DOMW8jzhSsNwzOnTD9JarK2n0C17tus2WpSg5rA0-imhEfji3PifBXqst7pkrIFc1Xl_hoK21ZlPnTLhTwy0lSrpJpFWybNmRe9vXtD1R1JzKos0nQsseNEGei70nIqNBor-MgyNO- -4PPvx0l_iVC4CJ3GyWrlC_bY3cqMfSQuXfACT_]--></g></svg>